<svg width="489" height="72" viewBox="0 0 489 72" fill="none" xmlns="http://www.w3.org/2000/svg">
<path d="M13.84 48C18.185 50.4461 23.0651 51.7855 28.05 51.9001C34.05 51.8401 37.73 50.01 37.73 46.37C37.73 43.68 36.24 42.05 31.15 40.71C29.15 40.17 25.02 39.11 22.66 38.37C14.45 35.78 10 31.2 10 24.85C10 16.63 16.12 10.05 29.36 10.05C36.49 10.05 43.63 13.05 46.83 14.66L43.21 23.05C38.7787 20.8931 33.9278 19.7358 29 19.66C23 19.66 20.57 21.48 20.57 24.32C20.57 27.16 22.38 28.21 25.95 29.22C28.22 29.86 35.04 31.85 35.04 31.85C44 34.32 48.35 38.5201 48.35 45.7401C48.35 55.0501 39.76 61.51 27.83 61.51C20.63 61.51 12.97 58.1501 10.38 56.2001L13.84 48Z" fill="white"/>
<path d="M61.6699 10.79H83.0699C92.8899 10.79 101.3 16.55 101.3 29.09C101.3 40.37 92.8899 47.09 83.0699 47.09H71.9999V60.81H61.6699V10.79ZM71.9999 19.64V37.94H81.4099C86.4999 37.94 90.5599 34.47 90.5599 28.86C90.5599 22.86 86.4999 19.64 81.4099 19.64H71.9999Z" fill="white"/>
<path d="M177.27 10.79H197C209.32 10.79 217 15.79 217 27.07C217 35.07 211.25 40.92 203.72 42.48L219.67 59.2V60.81H208.22L191.47 42.81H187.64V60.81H177.27V10.79ZM187.64 19.64V34.58H198.11C202.83 34.58 206.22 31.79 206.22 27.15C206.22 22.2 202.83 19.64 198.11 19.64H187.64Z" fill="white"/>
<path d="M253.52 19.94V60.81H243.15V19.94H228.51V10.79H267.86V19.94H253.52Z" fill="white"/>
<path d="M334.05 19.94V60.81H323.68V19.94H309V10.79H348.34V19.94H334.05Z" fill="white"/>
<path d="M358.64 10.79H369.93L384.54 51.44L399.66 10.79H411L391 60.81H378L358.64 10.79Z" fill="white"/>
<path d="M288.6 45.89C294.162 45.89 298.67 41.3815 298.67 35.82C298.67 30.2585 294.162 25.75 288.6 25.75C283.039 25.75 278.53 30.2585 278.53 35.82C278.53 41.3815 283.039 45.89 288.6 45.89Z" fill="#FFDA00"/>
<path d="M137.88 10C132.774 10.002 127.783 11.518 123.538 14.3563C119.293 17.1947 115.985 21.2279 114.033 25.946C112.08 30.6642 111.57 35.8554 112.567 40.8634C113.565 45.8713 116.025 50.471 119.636 54.081C123.248 57.691 127.848 60.1491 132.857 61.1446C137.865 62.1401 143.056 61.6282 147.773 59.6736C152.491 57.7191 156.523 54.4096 159.359 50.1638C162.196 45.9179 163.71 40.9263 163.71 35.82C163.71 32.4284 163.042 29.0701 161.744 25.9368C160.445 22.8035 158.543 19.9567 156.144 17.559C153.745 15.1612 150.898 13.2595 147.764 11.9626C144.63 10.6656 141.272 9.99869 137.88 10V10ZM137.88 45.89C135.891 45.8801 133.949 45.2811 132.299 44.1687C130.65 43.0562 129.367 41.48 128.612 39.6391C127.858 37.7982 127.666 35.7751 128.06 33.825C128.454 31.8749 129.417 30.0853 130.827 28.6819C132.237 27.2786 134.032 26.3245 135.984 25.94C137.936 25.5555 139.958 25.7578 141.795 26.5214C143.632 27.285 145.202 28.5757 146.306 30.2306C147.411 31.8855 148 33.8305 148 35.82C148 37.1466 147.738 38.4602 147.229 39.6852C146.72 40.9102 145.973 42.0226 145.033 42.9583C144.093 43.894 142.977 44.6348 141.749 45.1379C140.522 45.641 139.207 45.8966 137.88 45.89V45.89Z" fill="#FFDA00"/>
<path d="M432.33 10.8501L412.33 60.8501H478.23V10.8501H432.33Z" fill="#FFDA00"/>
<path d="M453.5 20.3701C456.961 20.3008 460.332 21.4753 463 23.6801L459.93 28.8201C459.099 27.9761 458.102 27.3138 457.003 26.8748C455.903 26.4359 454.724 26.23 453.54 26.2701C448.69 26.2701 445.54 30.4501 445.54 35.5401C445.513 35.7626 445.513 35.9876 445.54 36.2101C446.505 34.9474 447.747 33.9229 449.171 33.2156C450.594 32.5083 452.161 32.1369 453.75 32.1301C459.51 32.1301 464.65 35.6301 464.65 42.4501C464.65 48.6901 459.7 53.4501 452.41 53.4501C442.66 53.4501 438.58 45.9701 438.58 36.9401C438.57 27.2301 444 20.3701 453.5 20.3701ZM451.77 37.7901C450.568 37.8165 449.387 38.106 448.309 38.6381C447.231 39.1703 446.282 39.9321 445.53 40.8701C445.82 43.9401 447.53 47.4901 452.06 47.4901C455.76 47.4901 457.73 45.0001 457.73 42.7401C457.73 39.2801 454.89 37.7901 451.77 37.7901V37.7901Z" fill="black"/>
</svg>
